<?xml version="1.0" encoding="UTF-8"?>
<!DOCTYPE svg PUBLIC "-//W3C//DTD SVG 1.1//EN" "http://www.w3.org/Graphics/SVG/1.1/DTD/svg11.dtd">
<svg xmlns="http://www.w3.org/2000/svg" version="1.1" width="500px" height="500px" style="shape-rendering:geometricPrecision; text-rendering:geometricPrecision; image-rendering:optimizeQuality; fill-rule:evenodd; clip-rule:evenodd" xmlns:xlink="http://www.w3.org/1999/xlink">
<g><path style="opacity:0.544" fill="#f4fcfe" d="M 337.5,141.5 C 339.845,139.434 340.011,137.1 338,134.5C 335.52,132.91 333.687,133.41 332.5,136C 333.483,138.15 334.816,139.983 336.5,141.5C 334.833,141.5 333.167,141.5 331.5,141.5C 331.5,138.5 331.5,135.5 331.5,132.5C 334.518,132.335 337.518,132.502 340.5,133C 340.827,135.685 340.827,138.518 340.5,141.5C 339.5,141.5 338.5,141.5 337.5,141.5 Z"/></g>
<g><path style="opacity:1" fill="#fcfdfd" d="M 337.5,141.5 C 337.167,141.5 336.833,141.5 336.5,141.5C 334.816,139.983 333.483,138.15 332.5,136C 333.687,133.41 335.52,132.91 338,134.5C 340.011,137.1 339.845,139.434 337.5,141.5 Z"/></g>
<g><path style="opacity:0.97" fill="#fcfefd" d="M 211.5,141.5 C 212.863,143.373 214.53,145.039 216.5,146.5C 215.398,147.176 214.398,147.842 213.5,148.5C 212.761,148.369 212.094,148.536 211.5,149C 212.379,171.648 212.545,194.481 212,217.5C 212.249,218.624 212.749,219.624 213.5,220.5C 219.175,224.846 224.508,229.512 229.5,234.5C 230.048,236.394 231.048,238.06 232.5,239.5C 231.443,239.906 230.109,239.906 228.5,239.5C 220.439,235.052 212.273,230.719 204,226.5C 203.5,197.502 203.333,168.502 203.5,139.5C 206.221,139.963 208.888,140.629 211.5,141.5 Z"/></g>
<g><path style="opacity:0.937" fill="#fcfefd" d="M 288.5,141.5 C 289.552,141.771 290.885,141.938 292.5,142C 293.097,143.062 293.43,144.228 293.5,145.5C 293.268,171.421 293.102,197.421 293,223.5C 292.535,224.931 291.701,226.097 290.5,227C 285.501,228.533 281.167,231.033 277.5,234.5C 274.402,236.892 271.069,239.058 267.5,241C 267.833,241.333 268.167,241.667 268.5,242C 267.584,242.278 266.918,242.778 266.5,243.5C 266.167,243.5 265.833,243.5 265.5,243.5C 265.167,242.167 264.833,242.167 264.5,243.5C 263.833,244.167 263.167,244.833 262.5,245.5C 262.167,244.167 261.833,244.167 261.5,245.5C 260.833,245.5 260.5,245.833 260.5,246.5C 258.983,246.511 257.816,247.177 257,248.5C 256.833,248.167 256.667,247.833 256.5,247.5C 264.727,236.772 274.393,227.605 285.5,220C 286.252,219.329 286.586,218.496 286.5,217.5C 287.215,207.982 287.882,198.315 288.5,188.5C 288.122,186.283 287.455,184.283 286.5,182.5C 285.181,171.402 285.181,160.402 286.5,149.5C 286.369,150.239 286.536,150.906 287,151.5C 287.494,149.866 287.66,148.199 287.5,146.5C 285.669,147.052 284.003,147.052 282.5,146.5C 281.579,148.756 279.912,149.756 277.5,149.5C 277.5,148.5 277.5,147.5 277.5,146.5C 280.751,144.043 284.418,142.376 288.5,141.5 Z"/></g>
<g><path style="opacity:0.975" fill="#fcfefe" d="M 326.5,177.5 C 325.719,175.678 324.552,175.011 323,175.5C 322.809,169.917 322.309,164.417 321.5,159C 324.004,158.592 326.838,158.092 330,157.5C 332.094,157.536 334.094,157.869 336,158.5C 336.717,157.956 337.217,157.289 337.5,156.5C 341.006,152.648 342.339,147.981 341.5,142.5C 346.179,142.334 350.845,142.501 355.5,143C 356.833,147.667 356.833,152.333 355.5,157C 351.833,157.333 348.167,157.667 344.5,158C 344,158.5 343.5,159 343,159.5C 342.501,165.491 342.334,171.491 342.5,177.5C 337.167,177.5 331.833,177.5 326.5,177.5 Z"/></g>
<g><path style="opacity:0.982" fill="#f8fdfe" d="M 211.5,141.5 C 223.69,146.426 234.357,153.593 243.5,163C 233.982,157.409 223.982,152.576 213.5,148.5C 214.398,147.842 215.398,147.176 216.5,146.5C 214.53,145.039 212.863,143.373 211.5,141.5 Z"/></g>
<g><path style="opacity:0.932" fill="#f7fdfe" d="M 277.5,146.5 C 277.5,147.5 277.5,148.5 277.5,149.5C 279.912,149.756 281.579,148.756 282.5,146.5C 284.003,147.052 285.669,147.052 287.5,146.5C 287.66,148.199 287.494,149.866 287,151.5C 286.536,150.906 286.369,150.239 286.5,149.5C 275.325,151.574 264.992,156.241 255.5,163.5C 255.167,163.333 254.833,163.167 254.5,163C 260.949,155.705 268.616,150.205 277.5,146.5 Z"/></g>
<g><path style="opacity:0.496" fill="#f2fdfe" d="M 198.5,159.5 C 196.59,157.716 194.256,156.716 191.5,156.5C 191.737,157.791 191.404,158.791 190.5,159.5C 190.286,157.856 190.62,156.356 191.5,155C 193.81,154.503 196.143,154.337 198.5,154.5C 198.5,156.167 198.5,157.833 198.5,159.5 Z"/></g>
<g><path style="opacity:0.887" fill="#fdfefe" d="M 303.5,154.5 C 303.908,155.643 304.575,156.643 305.5,157.5C 306.5,185.492 306.833,213.492 306.5,241.5C 302.19,240.424 297.857,240.424 293.5,241.5C 293.577,240.25 294.244,239.417 295.5,239C 295.043,238.586 294.709,238.086 294.5,237.5C 295.776,236.355 297.109,236.355 298.5,237.5C 299.192,236.975 299.692,236.308 300,235.5C 300.539,231.729 301.039,228.229 301.5,225C 300.874,224.25 300.374,223.416 300,222.5C 299.506,224.134 299.34,225.801 299.5,227.5C 298.776,208.825 298.109,189.992 297.5,171C 298.952,167.242 298.619,163.742 296.5,160.5C 297.511,158.653 298.511,156.82 299.5,155C 300.793,154.51 302.127,154.343 303.5,154.5 Z"/></g>
<g><path style="opacity:0.869" fill="#fdfefd" d="M 198.5,159.5 C 199.402,184.395 199.735,209.395 199.5,234.5C 200.681,236.067 202.347,236.901 204.5,237C 205.267,238.47 205.933,239.97 206.5,241.5C 201.463,241.587 196.463,241.254 191.5,240.5C 191.831,217.994 191.497,195.66 190.5,173.5C 190.277,169.057 190.277,164.39 190.5,159.5C 191.404,158.791 191.737,157.791 191.5,156.5C 194.256,156.716 196.59,157.716 198.5,159.5 Z"/></g>
<g><path style="opacity:0.78" fill="#f6fefe" d="M 337.5,156.5 C 337.217,157.289 336.717,157.956 336,158.5C 334.094,157.869 332.094,157.536 330,157.5C 326.838,158.092 324.004,158.592 321.5,159C 322.309,164.417 322.809,169.917 323,175.5C 324.552,175.011 325.719,175.678 326.5,177.5C 324.5,177.5 322.5,177.5 320.5,177.5C 320.5,170.5 320.5,163.5 320.5,156.5C 326.167,156.5 331.833,156.5 337.5,156.5 Z"/></g>
<g><path style="opacity:0.228" fill="#f5fefe" d="M 303.5,154.5 C 304.833,154.5 306.167,154.5 307.5,154.5C 307.5,183.833 307.5,213.167 307.5,242.5C 297.062,242.468 286.728,243.468 276.5,245.5C 282.082,243.018 287.748,241.685 293.5,241.5C 297.857,240.424 302.19,240.424 306.5,241.5C 306.833,213.492 306.5,185.492 305.5,157.5C 304.575,156.643 303.908,155.643 303.5,154.5 Z"/></g>
<g><path style="opacity:0.969" fill="#fcfefe" d="M 177.5,177.5 C 177.5,200.5 177.5,223.5 177.5,246.5C 187.172,246.334 196.839,246.5 206.5,247C 216.727,248.513 226.727,251.513 236.5,256C 232.179,256.499 227.846,256.666 223.5,256.5C 223.649,255.448 223.483,254.448 223,253.5C 221.915,254.293 220.748,254.96 219.5,255.5C 217.297,255.413 215.13,255.413 213,255.5C 211.333,254.833 209.667,254.167 208,253.5C 205.446,254.771 202.613,255.438 199.5,255.5C 190.029,255.795 180.695,255.462 171.5,254.5C 169.926,254.063 168.759,253.063 168,251.5C 167.167,224.827 167.333,198.16 168.5,171.5C 169.265,170.388 170.265,169.721 171.5,169.5C 176.21,168.925 180.876,168.591 185.5,168.5C 185.5,170.833 185.5,173.167 185.5,175.5C 182.302,174.964 179.635,175.631 177.5,177.5 Z"/></g>
<g><path style="opacity:0.786" fill="#f6feff" d="M 177.5,177.5 C 179.635,175.631 182.302,174.964 185.5,175.5C 185.5,173.167 185.5,170.833 185.5,168.5C 180.876,168.591 176.21,168.925 171.5,169.5C 171.918,168.778 172.584,168.278 173.5,168C 177.863,167.631 182.196,167.131 186.5,166.5C 186.5,170.167 186.5,173.833 186.5,177.5C 183.5,177.5 180.5,177.5 177.5,177.5 Z"/></g>
<g><path style="opacity:0.217" fill="#f5feff" d="M 190.5,173.5 C 191.497,195.66 191.831,217.994 191.5,240.5C 196.463,241.254 201.463,241.587 206.5,241.5C 207.338,241.842 207.672,242.508 207.5,243.5C 201.879,242.646 196.212,242.313 190.5,242.5C 190.5,219.5 190.5,196.5 190.5,173.5 Z"/></g>
<g><path style="opacity:0.944" fill="#fdfefd" d="M 330.5,186.5 C 331.777,203.919 331.777,221.586 330.5,239.5C 329.883,239.611 329.383,239.944 329,240.5C 328.667,243.5 328.333,246.5 328,249.5C 327.535,250.931 326.701,252.097 325.5,253C 326.056,253.383 326.389,253.883 326.5,254.5C 326.158,255.338 325.492,255.672 324.5,255.5C 312.495,255.667 300.495,255.5 288.5,255C 288,254.5 287.5,254 287,253.5C 281.679,255.349 276.346,256.015 271,255.5C 268.72,255.106 268.22,254.106 269.5,252.5C 270.458,252.047 271.292,251.381 272,250.5C 272.671,251.252 273.504,251.586 274.5,251.5C 277.074,251.844 279.741,251.344 282.5,250C 292.037,249.247 301.371,248.08 310.5,246.5C 313.833,246.5 317.167,246.5 320.5,246.5C 322.915,244.409 323.415,242.076 322,239.5C 321.333,223.5 321.333,207.5 322,191.5C 324.096,190.285 323.929,189.451 321.5,189C 324.289,187.336 327.123,187.17 330,188.5C 330.464,187.906 330.631,187.239 330.5,186.5 Z"/></g>
<g><path style="opacity:0.197" fill="#f7fefe" d="M 330.5,186.5 C 330.631,187.239 330.464,187.906 330,188.5C 327.123,187.17 324.289,187.336 321.5,189C 323.929,189.451 324.096,190.285 322,191.5C 321.333,207.5 321.333,223.5 322,239.5C 323.415,242.076 322.915,244.409 320.5,246.5C 320.167,226.156 320.5,205.822 321.5,185.5C 324.421,186.407 327.421,186.74 330.5,186.5 Z"/></g>
<g><path style="opacity:0.893" fill="#f0fcfe" d="M 286.5,182.5 C 287.455,184.283 288.122,186.283 288.5,188.5C 287.882,198.315 287.215,207.982 286.5,217.5C 286.5,205.833 286.5,194.167 286.5,182.5 Z"/></g>
<g><path style="opacity:0.281" fill="#f5fefe" d="M 277.5,234.5 C 281.167,231.033 285.501,228.533 290.5,227C 291.701,226.097 292.535,224.931 293,223.5C 293.102,197.421 293.268,171.421 293.5,145.5C 293.43,144.228 293.097,143.062 292.5,142C 290.885,141.938 289.552,141.771 288.5,141.5C 290.214,140.262 292.214,139.595 294.5,139.5C 294.667,168.502 294.5,197.502 294,226.5C 288.677,229.578 283.177,232.245 277.5,234.5 Z"/></g>
<g><path style="opacity:0.917" fill="#f9fdfe" d="M 199.5,234.5 C 216.133,236.25 230.3,242.583 242,253.5C 230.152,248.122 218.652,244.788 207.5,243.5C 207.672,242.508 207.338,241.842 206.5,241.5C 205.933,239.97 205.267,238.47 204.5,237C 202.347,236.901 200.681,236.067 199.5,234.5 Z"/></g>
<g><path style="opacity:0.876" fill="#f9fdfd" d="M 293.5,241.5 C 287.748,241.685 282.082,243.018 276.5,245.5C 274.192,247.29 271.858,248.29 269.5,248.5C 267.158,248.775 267.158,249.608 269.5,251C 267.633,251.711 266.133,251.211 265,249.5C 262,250.833 259,252.167 256,253.5C 256.993,251.171 258.827,249.337 261.5,248C 260.944,247.617 260.611,247.117 260.5,246.5C 261.167,246.5 261.5,246.167 261.5,245.5C 261.833,245.5 262.167,245.5 262.5,245.5C 262.369,246.239 262.536,246.906 263,247.5C 264.188,246.437 264.688,245.103 264.5,243.5C 264.833,243.5 265.167,243.5 265.5,243.5C 265.833,244.833 266.167,244.833 266.5,243.5C 267.117,243.611 267.617,243.944 268,244.5C 277.761,238.858 288.261,235.524 299.5,234.5C 299.5,232.167 299.5,229.833 299.5,227.5C 299.34,225.801 299.506,224.134 300,222.5C 300.374,223.416 300.874,224.25 301.5,225C 301.039,228.229 300.539,231.729 300,235.5C 299.692,236.308 299.192,236.975 298.5,237.5C 297.109,236.355 295.776,236.355 294.5,237.5C 294.709,238.086 295.043,238.586 295.5,239C 294.244,239.417 293.577,240.25 293.5,241.5 Z"/></g>
<g><path style="opacity:0.678" fill="#f5fefe" d="M 229.5,234.5 C 234.33,238.497 238.664,242.997 242.5,248C 237.456,245.97 232.789,243.136 228.5,239.5C 230.109,239.906 231.443,239.906 232.5,239.5C 231.048,238.06 230.048,236.394 229.5,234.5 Z"/></g>
<g><path style="opacity:0.643" fill="#f7fefe" d="M 310.5,246.5 C 301.371,248.08 292.037,249.247 282.5,250C 279.741,251.344 277.074,251.844 274.5,251.5C 286.005,247.253 298.005,245.586 310.5,246.5 Z"/></g>
<g><path style="opacity:0.75" fill="#f4fefe" d="M 330.5,239.5 C 330.666,243.514 330.499,247.514 330,251.5C 328.961,252.71 327.794,253.71 326.5,254.5C 326.389,253.883 326.056,253.383 325.5,253C 326.701,252.097 327.535,250.931 328,249.5C 328.333,246.5 328.667,243.5 329,240.5C 329.383,239.944 329.883,239.611 330.5,239.5 Z"/></g>
<g><path style="opacity:0.004" fill="#fefffe" d="M 269.5,248.5 C 270.833,249.167 270.833,249.167 269.5,248.5 Z"/></g>
<g><path style="opacity:0.802" fill="#f5fefe" d="M 223.5,256.5 C 206.497,256.667 189.497,256.5 172.5,256C 171.944,255.617 171.611,255.117 171.5,254.5C 180.695,255.462 190.029,255.795 199.5,255.5C 202.613,255.438 205.446,254.771 208,253.5C 209.667,254.167 211.333,254.833 213,255.5C 215.13,255.413 217.297,255.413 219.5,255.5C 220.748,254.96 221.915,254.293 223,253.5C 223.483,254.448 223.649,255.448 223.5,256.5 Z"/></g>
<g><path style="opacity:0.784" fill="#f5feff" d="M 269.5,252.5 C 268.22,254.106 268.72,255.106 271,255.5C 276.346,256.015 281.679,255.349 287,253.5C 287.5,254 288,254.5 288.5,255C 300.495,255.5 312.495,255.667 324.5,255.5C 303.671,256.663 282.671,256.829 261.5,256C 264.032,254.544 266.699,253.377 269.5,252.5 Z"/></g>
<g><path style="opacity:0.979" fill="#fcfefd" d="M 261.5,265.5 C 265.84,266.046 270.173,267.046 274.5,268.5C 275.777,270.764 275.277,272.764 273,274.5C 272.667,274.167 272.333,273.833 272,273.5C 256.069,274.16 240.235,274.826 224.5,275.5C 220.93,272.959 220.597,269.959 223.5,266.5C 229.439,265.543 235.439,265.21 241.5,265.5C 241.33,264.178 241.663,263.011 242.5,262C 246.833,261.333 251.167,261.333 255.5,262C 256.337,263.011 256.67,264.178 256.5,265.5C 258.167,265.5 259.833,265.5 261.5,265.5 Z"/></g>
<g><path style="opacity:0.27" fill="#f6fefe" d="M 261.5,265.5 C 266.297,265.121 270.964,265.621 275.5,267C 277.013,269.916 276.68,272.582 274.5,275C 257.837,275.5 241.17,275.667 224.5,275.5C 240.235,274.826 256.069,274.16 272,273.5C 272.333,273.833 272.667,274.167 273,274.5C 275.277,272.764 275.777,270.764 274.5,268.5C 270.173,267.046 265.84,266.046 261.5,265.5 Z"/></g>
</svg>
