<?xml version="1.0" encoding="UTF-8"?>
<!DOCTYPE svg PUBLIC "-//W3C//DTD SVG 1.1//EN" "http://www.w3.org/Graphics/SVG/1.1/DTD/svg11.dtd">
<svg xmlns="http://www.w3.org/2000/svg" version="1.1" width="500px" height="500px" style="shape-rendering:geometricPrecision; text-rendering:geometricPrecision; image-rendering:optimizeQuality; fill-rule:evenodd; clip-rule:evenodd" xmlns:xlink="http://www.w3.org/1999/xlink">
<g><path style="opacity:0.786" fill="#f6fefe" d="M 332.5,132.5 C 335.187,132.336 337.854,132.503 340.5,133C 340.214,135.744 340.547,138.577 341.5,141.5C 338.15,141.665 334.817,141.498 331.5,141C 331.626,138.766 331.293,136.432 330.5,134C 331.416,133.722 332.082,133.222 332.5,132.5 Z"/></g>
<g><path style="opacity:0.999" fill="#fdfdfc" d="M 334.5,133.5 C 336.288,133.215 337.955,133.548 339.5,134.5C 339.331,136.117 338.997,137.784 338.5,139.5C 336.004,140.756 334.004,140.09 332.5,137.5C 333.641,136.575 333.641,135.741 332.5,135C 333.416,134.722 334.082,134.222 334.5,133.5 Z"/></g>
<g><path style="opacity:0.935" fill="#fcfefd" d="M 234.5,155.5 C 233.833,155.833 233.167,156.167 232.5,156.5C 225.949,153.975 219.449,151.309 213,148.5C 212.83,159.341 212.33,170.008 211.5,180.5C 211.666,173.825 211.5,167.158 211,160.5C 210.803,168.549 210.303,176.549 209.5,184.5C 209.774,197.02 210.441,207.686 211.5,216.5C 212.161,217.718 212.828,219.051 213.5,220.5C 217.476,222.81 220.809,225.81 223.5,229.5C 223.062,229.435 222.728,229.601 222.5,230C 227.272,233.86 231.605,238.194 235.5,243C 235.272,243.399 234.938,243.565 234.5,243.5C 234.167,243.5 233.833,243.5 233.5,243.5C 232.432,242.566 231.099,242.232 229.5,242.5C 229.5,241.833 229.167,241.5 228.5,241.5C 228.158,240.662 227.492,240.328 226.5,240.5C 225.718,238.549 224.384,237.049 222.5,236C 216.947,233.392 211.613,230.559 206.5,227.5C 206.539,226.244 206.039,225.244 205,224.5C 204.832,199.663 204.332,174.997 203.5,150.5C 203.176,146.445 203.509,142.445 204.5,138.5C 210.136,140.983 215.803,143.483 221.5,146C 226.256,148.699 230.589,151.866 234.5,155.5 Z"/></g>
<g><path style="opacity:0.981" fill="#fcfefd" d="M 288.5,141.5 C 289.816,141.474 291.316,141.807 293,142.5C 293.667,169.5 293.667,196.5 293,223.5C 290.985,226.412 288.485,228.745 285.5,230.5C 282.485,232.674 279.151,234.341 275.5,235.5C 274.178,235.33 273.011,235.663 272,236.5C 271.506,234.866 271.34,233.199 271.5,231.5C 275.587,227.078 280.254,223.411 285.5,220.5C 286.83,214.034 287.497,207.201 287.5,200C 287.5,192.992 287.166,186.158 286.5,179.5C 286.075,169.129 286.075,158.963 286.5,149C 281.195,149.752 276.195,151.585 271.5,154.5C 271.167,153.167 270.833,151.833 270.5,150.5C 275.914,146.46 281.914,143.46 288.5,141.5 Z"/></g>
<g><path style="opacity:0.251" fill="#f6fefe" d="M 203.5,150.5 C 204.332,174.997 204.832,199.663 205,224.5C 206.039,225.244 206.539,226.244 206.5,227.5C 205.5,227.5 204.5,227.5 203.5,227.5C 203.441,201.915 203.441,176.249 203.5,150.5 Z"/></g>
<g><path style="opacity:0.874" fill="#fcfefe" d="M 226.5,240.5 C 226.842,241.338 227.508,241.672 228.5,241.5C 229.167,241.5 229.5,241.833 229.5,242.5C 230.126,243.529 230.959,244.529 232,245.5C 232.278,244.584 232.778,243.918 233.5,243.5C 233.433,244.959 233.766,246.292 234.5,247.5C 233.167,247.833 231.833,248.167 230.5,248.5C 229.85,248.804 229.183,249.137 228.5,249.5C 228.167,248.833 227.833,248.167 227.5,247.5C 226.707,247.931 225.873,248.265 225,248.5C 219.054,244.978 212.72,243.645 206,244.5C 200.98,242.997 195.813,242.33 190.5,242.5C 190.5,213.167 190.5,183.833 190.5,154.5C 193.448,154.223 196.281,154.556 199,155.5C 199.759,181.85 199.592,208.017 198.5,234C 207.58,235.268 216.246,237.768 224.5,241.5C 225.183,241.137 225.85,240.804 226.5,240.5 Z"/></g>
<g><path style="opacity:0.821" fill="#f5fefe" d="M 270.5,150.5 C 270.833,151.833 271.167,153.167 271.5,154.5C 265.71,157.395 260.043,160.228 254.5,163C 258.988,157.608 264.322,153.442 270.5,150.5 Z"/></g>
<g><path style="opacity:0.818" fill="#fefefd" d="M 298.5,242.5 C 296.958,243.301 295.292,243.634 293.5,243.5C 290.163,243.049 287.83,241.215 286.5,238C 290.727,237.256 294.894,236.422 299,235.5C 299.333,235.833 299.667,236.167 300,236.5C 300.273,234.899 300.773,233.399 301.5,232C 300.184,231.472 299.517,231.972 299.5,233.5C 298.743,226.823 298.077,219.99 297.5,213C 297.388,194.025 297.721,175.192 298.5,156.5C 300.247,156.407 302.081,156.074 304,155.5C 304.667,156.167 305.333,156.833 306,157.5C 306.833,185.173 306.667,212.839 305.5,240.5C 303.694,241.859 302.194,241.525 301,239.5C 300.302,240.691 299.469,241.691 298.5,242.5 Z"/></g>
<g><path style="opacity:0.986" fill="#fdfefe" d="M 342.5,160.5 C 341.674,164.982 341.174,169.649 341,174.5C 337.487,175.821 333.987,176.821 330.5,177.5C 329.5,177.5 328.5,177.5 327.5,177.5C 326.469,176.751 325.302,176.085 324,175.5C 323.667,175.833 323.333,176.167 323,176.5C 322.333,170.5 322.333,164.5 323,158.5C 323.333,158.833 323.667,159.167 324,159.5C 325.31,158.103 326.81,157.103 328.5,156.5C 331.398,156.09 334.398,155.924 337.5,156C 338.667,154.833 339.833,153.667 341,152.5C 340.408,149.099 340.575,145.932 341.5,143C 346.326,141.873 351.326,141.706 356.5,142.5C 356.203,147.602 356.036,152.602 356,157.5C 352.591,156.378 349.091,156.211 345.5,157C 344.29,158.039 343.29,159.206 342.5,160.5 Z"/></g>
<g><path style="opacity:0.573" fill="#f2feff" d="M 234.5,155.5 C 237.919,157.412 240.919,159.912 243.5,163C 242.833,163.667 242.167,163.667 241.5,163C 238.433,160.812 235.433,158.645 232.5,156.5C 233.167,156.167 233.833,155.833 234.5,155.5 Z"/></g>
<g><path style="opacity:0.681" fill="#f7fefe" d="M 328.5,156.5 C 326.81,157.103 325.31,158.103 324,159.5C 323.667,159.167 323.333,158.833 323,158.5C 322.333,164.5 322.333,170.5 323,176.5C 323.333,176.167 323.667,175.833 324,175.5C 325.302,176.085 326.469,176.751 327.5,177.5C 325.167,177.5 322.833,177.5 320.5,177.5C 320.5,170.5 320.5,163.5 320.5,156.5C 323.167,156.5 325.833,156.5 328.5,156.5 Z"/></g>
<g><path style="opacity:0.247" fill="#f5fefe" d="M 298.5,242.5 C 299.469,241.691 300.302,240.691 301,239.5C 302.194,241.525 303.694,241.859 305.5,240.5C 306.667,212.839 306.833,185.173 306,157.5C 305.333,156.833 304.667,156.167 304,155.5C 302.081,156.074 300.247,156.407 298.5,156.5C 300.988,154.612 303.988,153.945 307.5,154.5C 307.5,183.833 307.5,213.167 307.5,242.5C 304.5,242.5 301.5,242.5 298.5,242.5 Z"/></g>
<g><path style="opacity:0.948" fill="#fdfefe" d="M 177.5,167.5 C 179.833,167.5 182.167,167.5 184.5,167.5C 185.265,170.096 185.599,172.763 185.5,175.5C 183.738,175.643 182.071,175.309 180.5,174.5C 178.787,174.879 177.787,175.879 177.5,177.5C 177.5,180.833 177.5,184.167 177.5,187.5C 176.592,206.689 176.092,226.022 176,245.5C 176.383,244.944 176.883,244.611 177.5,244.5C 180.087,245.816 183.087,246.483 186.5,246.5C 190.039,246.443 193.539,246.109 197,245.5C 207.696,246.643 218.196,248.477 228.5,251C 228.167,251.333 227.833,251.667 227.5,252C 230.845,253.006 233.845,254.506 236.5,256.5C 232.963,256.782 229.296,256.782 225.5,256.5C 226.087,255.233 226.087,254.233 225.5,253.5C 221.555,254.268 217.555,254.768 213.5,255C 211.657,255.159 210.991,255.659 211.5,256.5C 206.336,257.352 201.003,257.352 195.5,256.5C 187.654,255.703 179.654,255.036 171.5,254.5C 169.381,253.209 167.715,251.375 166.5,249C 167.494,224.908 167.828,200.741 167.5,176.5C 170.85,173.481 174.183,170.481 177.5,167.5 Z"/></g>
<g><path style="opacity:0.964" fill="#f4fefe" d="M 177.5,167.5 C 174.183,170.481 170.85,173.481 167.5,176.5C 167.932,170.406 171.265,167.406 177.5,167.5 Z"/></g>
<g><path style="opacity:0.849" fill="#f4feff" d="M 184.5,167.5 C 186.402,170.337 187.069,173.671 186.5,177.5C 183.5,177.5 180.5,177.5 177.5,177.5C 177.787,175.879 178.787,174.879 180.5,174.5C 182.071,175.309 183.738,175.643 185.5,175.5C 185.599,172.763 185.265,170.096 184.5,167.5 Z"/></g>
<g><path style="opacity:0.278" fill="#f2fcfe" d="M 285.5,230.5 C 288.485,228.745 290.985,226.412 293,223.5C 293.667,196.5 293.667,169.5 293,142.5C 291.316,141.807 289.816,141.474 288.5,141.5C 290.214,140.262 292.214,139.595 294.5,139.5C 294.667,168.502 294.5,197.502 294,226.5C 291.341,228.246 288.508,229.58 285.5,230.5 Z"/></g>
<g><path style="opacity:0.806" fill="#f6feff" d="M 342.5,160.5 C 342.5,166.167 342.5,171.833 342.5,177.5C 338.5,177.5 334.5,177.5 330.5,177.5C 333.987,176.821 337.487,175.821 341,174.5C 341.174,169.649 341.674,164.982 342.5,160.5 Z"/></g>
<g><path style="opacity:0.876" fill="#f5feff" d="M 286.5,179.5 C 287.166,186.158 287.5,192.992 287.5,200C 287.497,207.201 286.83,214.034 285.5,220.5C 286.481,206.912 286.815,193.246 286.5,179.5 Z"/></g>
<g><path style="opacity:0.239" fill="#f5fefe" d="M 177.5,187.5 C 177.5,206.5 177.5,225.5 177.5,244.5C 176.883,244.611 176.383,244.944 176,245.5C 176.092,226.022 176.592,206.689 177.5,187.5 Z"/></g>
<g><path style="opacity:0.904" fill="#fdfefd" d="M 330.5,188.5 C 331.957,209.857 331.623,231.191 329.5,252.5C 328.183,254.159 326.517,255.326 324.5,256C 311.348,257.428 298.348,257.595 285.5,256.5C 286.525,256.103 286.692,255.437 286,254.5C 283.487,255.283 280.82,255.617 278,255.5C 275.667,254.833 273.333,254.167 271,253.5C 269.16,255.49 267.993,255.49 267.5,253.5C 267.5,253.167 267.5,252.833 267.5,252.5C 275.51,250.552 283.843,248.552 292.5,246.5C 293.772,246.57 294.938,246.903 296,247.5C 303.754,246.683 311.588,246.183 319.5,246C 320.056,245.617 320.389,245.117 320.5,244.5C 322.134,243.793 323.468,242.627 324.5,241C 323.584,240.626 322.75,240.126 322,239.5C 321.333,223.5 321.333,207.5 322,191.5C 324.096,190.285 323.929,189.451 321.5,189C 324.35,187.241 327.35,187.074 330.5,188.5 Z"/></g>
<g><path style="opacity:0.924" fill="#f7fefe" d="M 211.5,180.5 C 211.837,192.541 211.837,204.541 211.5,216.5C 210.441,207.686 209.774,197.02 209.5,184.5C 210.303,176.549 210.803,168.549 211,160.5C 211.5,167.158 211.666,173.825 211.5,180.5 Z"/></g>
<g><path style="opacity:0.269" fill="#f7fefe" d="M 330.5,188.5 C 327.35,187.074 324.35,187.241 321.5,189C 323.929,189.451 324.096,190.285 322,191.5C 321.333,207.5 321.333,223.5 322,239.5C 322.75,240.126 323.584,240.626 324.5,241C 323.468,242.627 322.134,243.793 320.5,244.5C 320.167,224.822 320.5,205.155 321.5,185.5C 324.366,186.795 327.199,186.795 330,185.5C 330.374,186.416 330.874,187.25 331.5,188C 331.272,188.399 330.938,188.565 330.5,188.5 Z"/></g>
<g><path style="opacity:0.725" fill="#f6fefe" d="M 223.5,229.5 C 230.654,234.82 236.987,240.987 242.5,248C 240.866,248.494 239.199,248.66 237.5,248.5C 237.5,248.167 237.5,247.833 237.5,247.5C 240.167,247.167 240.167,246.833 237.5,246.5C 237.5,245.833 237.167,245.5 236.5,245.5C 236.167,244.167 235.833,244.167 235.5,245.5C 234.662,245.158 234.328,244.492 234.5,243.5C 234.938,243.565 235.272,243.399 235.5,243C 231.605,238.194 227.272,233.86 222.5,230C 222.728,229.601 223.062,229.435 223.5,229.5 Z"/></g>
<g><path style="opacity:0.763" fill="#f9fdfe" d="M 271.5,231.5 C 271.34,233.199 271.506,234.866 272,236.5C 273.011,235.663 274.178,235.33 275.5,235.5C 273.039,237.153 270.872,239.153 269,241.5C 268.333,240.167 267.667,240.167 267,241.5C 266.437,242.725 266.77,243.725 268,244.5C 278.007,239.11 288.507,235.444 299.5,233.5C 299.517,231.972 300.184,231.472 301.5,232C 300.773,233.399 300.273,234.899 300,236.5C 299.667,236.167 299.333,235.833 299,235.5C 294.894,236.422 290.727,237.256 286.5,238C 287.83,241.215 290.163,243.049 293.5,243.5C 279.457,244.784 266.957,248.117 256,253.5C 256.425,251.945 257.258,250.445 258.5,249C 258.333,248.5 258.167,248 258,247.5C 254.975,248.791 254.641,248.124 257,245.5C 261.675,240.658 266.509,235.991 271.5,231.5 Z"/></g>
<g><path style="opacity:0.751" fill="#f5feff" d="M 235.5,245.5 C 235.833,245.5 236.167,245.5 236.5,245.5C 237.167,245.5 237.5,245.833 237.5,246.5C 237.5,246.833 237.5,247.167 237.5,247.5C 236.167,247.833 236.167,248.167 237.5,248.5C 239.123,249.779 240.79,251.113 242.5,252.5C 242.333,252.833 242.167,253.167 242,253.5C 238.124,251.716 234.291,250.049 230.5,248.5C 231.833,248.167 233.167,247.833 234.5,247.5C 235.338,247.158 235.672,246.492 235.5,245.5 Z"/></g>
<g><path style="opacity:0.004" fill="#fefffe" d="M 267.5,252.5 C 266.833,251.167 266.833,251.167 267.5,252.5 Z"/></g>
<g><path style="opacity:0.911" fill="#f5fefe" d="M 225.5,256.5 C 220.833,256.5 216.167,256.5 211.5,256.5C 210.991,255.659 211.657,255.159 213.5,255C 217.555,254.768 221.555,254.268 225.5,253.5C 226.087,254.233 226.087,255.233 225.5,256.5 Z"/></g>
<g><path style="opacity:0.886" fill="#f6fefe" d="M 267.5,253.5 C 267.993,255.49 269.16,255.49 271,253.5C 273.333,254.167 275.667,254.833 278,255.5C 280.82,255.617 283.487,255.283 286,254.5C 286.692,255.437 286.525,256.103 285.5,256.5C 278.288,256.219 271.122,256.552 264,257.5C 262.941,257.37 262.108,256.87 261.5,256C 263.287,254.681 265.287,253.848 267.5,253.5 Z"/></g>
<g><path style="opacity:0.745" fill="#f4fefe" d="M 171.5,254.5 C 179.654,255.036 187.654,255.703 195.5,256.5C 188.159,256.666 180.826,256.5 173.5,256C 172.584,255.722 171.918,255.222 171.5,254.5 Z"/></g>
<g><path style="opacity:0.977" fill="#fcfefd" d="M 271.5,265.5 C 272.677,267.032 274.011,268.532 275.5,270C 275.867,271.757 275.034,273.257 273,274.5C 256.709,274.47 240.209,274.47 223.5,274.5C 222.053,273.866 221.387,272.699 221.5,271C 221.484,268.695 222.484,267.028 224.5,266C 230.157,265.501 235.824,265.334 241.5,265.5C 241.33,264.178 241.663,263.011 242.5,262C 246.833,261.333 251.167,261.333 255.5,262C 256.337,263.011 256.67,264.178 256.5,265.5C 261.5,265.5 266.5,265.5 271.5,265.5 Z"/></g>
<g><path style="opacity:0.257" fill="#f6feff" d="M 271.5,265.5 C 276.151,266.24 277.651,268.906 276,273.5C 275.5,274 275,274.5 274.5,275C 257.328,275.828 240.328,275.662 223.5,274.5C 240.209,274.47 256.709,274.47 273,274.5C 275.034,273.257 275.867,271.757 275.5,270C 274.011,268.532 272.677,267.032 271.5,265.5 Z"/></g>
<g><path style="opacity:0.379" fill="#f6fefe" d="M 129.5,297.5 C 126.947,298.539 124.78,300.206 123,302.5C 122.333,311.167 122.333,319.833 123,328.5C 126.006,327.475 129.173,327.808 132.5,329.5C 128.833,329.5 125.167,329.5 121.5,329.5C 121.819,319.251 121.486,309.084 120.5,299C 123.278,297.608 126.278,297.108 129.5,297.5 Z"/></g>
<g><path style="opacity:0.932" fill="#fcfefd" d="M 129.5,297.5 C 135.5,297.5 141.5,297.5 147.5,297.5C 147.5,299.833 147.5,302.167 147.5,304.5C 145.801,304.34 144.134,304.506 142.5,305C 143.5,305.333 144.5,305.667 145.5,306C 144.906,306.464 144.239,306.631 143.5,306.5C 142.833,306.5 142.167,306.5 141.5,306.5C 138.328,305.874 135.161,305.207 132,304.5C 131.506,306.134 131.34,307.801 131.5,309.5C 136.179,309.334 140.845,309.501 145.5,310C 146.218,312.461 146.885,314.961 147.5,317.5C 146.731,319.801 145.731,319.967 144.5,318C 139.833,317.333 135.167,317.333 130.5,318C 131.38,319.356 131.714,320.856 131.5,322.5C 135.647,323.325 139.981,323.825 144.5,324C 147.018,325.81 147.018,327.643 144.5,329.5C 140.5,329.5 136.5,329.5 132.5,329.5C 129.173,327.808 126.006,327.475 123,328.5C 122.333,319.833 122.333,311.167 123,302.5C 124.78,300.206 126.947,298.539 129.5,297.5 Z"/></g>
<g><path style="opacity:0.922" fill="#f4fdfe" d="M 195.5,303.5 C 194.528,302.132 193.528,300.632 192.5,299C 191.167,298.333 189.833,298.333 188.5,299C 187.979,304.146 187.979,309.146 188.5,314C 187.915,315.302 187.249,316.469 186.5,317.5C 186.5,310.833 186.5,304.167 186.5,297.5C 189.833,297.5 193.167,297.5 196.5,297.5C 196.483,299.565 196.15,301.565 195.5,303.5 Z"/></g>
<g><path style="opacity:0.93" fill="#fdfefd" d="M 216.5,319.5 C 213.843,322.657 211.01,325.657 208,328.5C 205.597,327.503 203.264,327.836 201,329.5C 197.846,328.393 194.68,327.393 191.5,326.5C 188.549,324.268 186.882,321.268 186.5,317.5C 187.249,316.469 187.915,315.302 188.5,314C 187.979,309.146 187.979,304.146 188.5,299C 189.833,298.333 191.167,298.333 192.5,299C 193.528,300.632 194.528,302.132 195.5,303.5C 196.285,308.752 196.785,314.085 197,319.5C 200.333,323.5 203.667,323.5 207,319.5C 207.5,312.174 207.666,304.841 207.5,297.5C 210.833,297.5 214.167,297.5 217.5,297.5C 216.504,304.828 216.171,312.161 216.5,319.5 Z"/></g>
<g><path style="opacity:0.954" fill="#fcfefd" d="M 272.5,320.5 C 273.167,322.833 273.833,325.167 274.5,327.5C 272.799,327.034 271.299,327.034 270,327.5C 269.316,326.216 269.483,325.049 270.5,324C 270,323.5 269.5,323 269,322.5C 267.791,322.653 266.625,322.986 265.5,323.5C 263.532,321.685 261.198,321.185 258.5,322C 258.737,324.288 258.737,326.788 258.5,329.5C 255.5,329.5 252.5,329.5 249.5,329.5C 249.949,319.395 249.449,309.395 248,299.5C 246.632,300.993 246.465,302.493 247.5,304C 243.689,303.917 240.355,304.75 237.5,306.5C 236.509,313.313 236.175,320.313 236.5,327.5C 234.123,327.784 231.956,327.784 230,327.5C 229.828,320.987 229.328,314.653 228.5,308.5C 227.316,307.312 227.316,306.145 228.5,305C 225.24,304.216 222.073,304.383 219,305.5C 218.503,302.854 218.336,300.187 218.5,297.5C 227.751,297.818 236.917,297.485 246,296.5C 254.83,297.074 263.663,297.907 272.5,299C 277.272,302.699 278.772,307.533 277,313.5C 275.963,316.267 274.463,318.601 272.5,320.5 Z M 258.5,304.5 C 261.041,305.649 263.541,305.649 266,304.5C 269.388,306.851 269.888,309.518 267.5,312.5C 264.572,313.484 261.572,313.817 258.5,313.5C 258.5,310.5 258.5,307.5 258.5,304.5 Z"/></g>
<g><path style="opacity:0.988" fill="#fcfefd" d="M 172.5,298.5 C 183.124,302.218 186.624,309.551 183,320.5C 182.623,321.942 181.79,322.942 180.5,323.5C 177.14,325.262 173.64,326.928 170,328.5C 164.923,327.782 159.923,327.782 155,328.5C 154.292,327.619 153.458,326.953 152.5,326.5C 152.5,326.167 152.5,325.833 152.5,325.5C 153.695,325.134 154.361,324.301 154.5,323C 153.391,316.538 153.225,310.038 154,303.5C 154.5,303 155,302.5 155.5,302C 154.044,301.577 153.544,300.744 154,299.5C 160.288,298.588 166.455,298.254 172.5,298.5 Z M 162.5,305.5 C 172.781,304.045 176.614,308.378 174,318.5C 170.613,322.039 166.447,323.372 161.5,322.5C 161.26,316.773 161.593,311.106 162.5,305.5 Z"/></g>
<g><path style="opacity:0.993" fill="#fcfdfd" d="M 340.5,299.5 C 340.833,299.5 341.167,299.5 341.5,299.5C 341.421,300.93 341.754,302.264 342.5,303.5C 341.923,305.55 340.59,306.55 338.5,306.5C 330.929,302.952 326.263,305.285 324.5,313.5C 327.296,323.2 332.63,324.866 340.5,318.5C 346.423,321.357 346.756,324.523 341.5,328C 339.564,328.813 337.564,329.313 335.5,329.5C 333.173,329.335 331.007,328.669 329,327.5C 328.667,327.833 328.333,328.167 328,328.5C 325.884,327.31 323.884,325.977 322,324.5C 321.617,325.056 321.117,325.389 320.5,325.5C 319.833,325.5 319.5,325.167 319.5,324.5C 315.092,316.589 315.759,309.089 321.5,302C 324.089,300.803 326.756,299.803 329.5,299C 332.257,298.218 334.757,298.718 337,300.5C 338.011,299.663 339.178,299.33 340.5,299.5 Z"/></g>
<g><path style="opacity:0.973" fill="#fbfefd" d="M 357.5,322.5 C 356.751,324.97 355.251,326.97 353,328.5C 351.795,327.929 350.628,327.262 349.5,326.5C 350.795,322.584 350.795,318.417 349.5,314C 349.691,311.95 350.358,310.117 351.5,308.5C 351.735,306.023 351.235,303.69 350,301.5C 351.493,299.44 353.326,299.107 355.5,300.5C 355.694,302.07 355.694,303.57 355.5,305C 356.066,305.995 356.733,306.828 357.5,307.5C 357.369,308.239 357.536,308.906 358,309.5C 361.131,305.367 364.631,301.534 368.5,298C 371.882,297.176 375.216,297.343 378.5,298.5C 374.647,302.518 370.981,306.685 367.5,311C 371.5,317 375.5,323 379.5,329C 375.833,329.667 372.167,329.667 368.5,329C 366.591,325.34 364.091,322.173 361,319.5C 359.482,320.163 358.315,321.163 357.5,322.5 Z"/></g>
<g><path style="opacity:0.98" fill="#fafdfd" d="M 265.5,323.5 C 266.625,322.986 267.791,322.653 269,322.5C 269.5,323 270,323.5 270.5,324C 269.483,325.049 269.316,326.216 270,327.5C 271.299,327.034 272.799,327.034 274.5,327.5C 273.833,325.167 273.167,322.833 272.5,320.5C 274.167,322.5 275.833,324.5 277.5,326.5C 278.167,329.167 278.833,329.167 279.5,326.5C 283.891,317.375 288.058,308.041 292,298.5C 295.892,296.933 299.558,297.267 303,299.5C 307.131,309.421 310.964,319.421 314.5,329.5C 311.167,329.5 307.833,329.5 304.5,329.5C 304.714,327.856 304.38,326.356 303.5,325C 298.845,324.501 294.179,324.334 289.5,324.5C 289.579,325.93 289.246,327.264 288.5,328.5C 281.858,329.664 275.192,329.831 268.5,329C 267.361,327.22 266.361,325.386 265.5,323.5 Z M 296.5,307.5 C 297.715,310.436 299.048,313.436 300.5,316.5C 298.167,317.833 295.833,317.833 293.5,316.5C 294.801,313.573 295.801,310.573 296.5,307.5 Z M 277.5,326.5 C 278.167,326.5 278.833,326.5 279.5,326.5C 278.833,329.167 278.167,329.167 277.5,326.5 Z"/></g>
<g><path style="opacity:0.885" fill="#f1fcff" d="M 341.5,299.5 C 344.503,299.988 345.669,301.655 345,304.5C 343.649,306.019 342.149,307.352 340.5,308.5C 339.478,308.145 338.811,307.478 338.5,306.5C 340.59,306.55 341.923,305.55 342.5,303.5C 341.754,302.264 341.421,300.93 341.5,299.5 Z"/></g>
<g><path style="opacity:0.46" fill="#f6fefe" d="M 172.5,298.5 C 166.455,298.254 160.288,298.588 154,299.5C 153.544,300.744 154.044,301.577 155.5,302C 155,302.5 154.5,303 154,303.5C 153.225,310.038 153.391,316.538 154.5,323C 154.361,324.301 153.695,325.134 152.5,325.5C 152.5,316.167 152.5,306.833 152.5,297.5C 159.354,297.176 166.021,297.509 172.5,298.5 Z"/></g>
<g><path style="opacity:0.729" fill="#f5fefe" d="M 340.5,299.5 C 339.178,299.33 338.011,299.663 337,300.5C 334.757,298.718 332.257,298.218 329.5,299C 326.756,299.803 324.089,300.803 321.5,302C 315.759,309.089 315.092,316.589 319.5,324.5C 316.246,321.637 314.913,317.97 315.5,313.5C 315.114,305.432 318.781,300.266 326.5,298C 330.5,297.333 334.5,297.333 338.5,298C 339.416,298.278 340.082,298.778 340.5,299.5 Z"/></g>
<g><path style="opacity:0.007" fill="#fefffe" d="M 141.5,306.5 C 142.167,306.5 142.833,306.5 143.5,306.5C 142.833,309.167 142.167,309.167 141.5,306.5 Z"/></g>
<g><path style="opacity:0.67" fill="#f6fefe" d="M 237.5,306.5 C 237.5,314.167 237.5,321.833 237.5,329.5C 234.5,329.5 231.5,329.5 228.5,329.5C 228.5,322.5 228.5,315.5 228.5,308.5C 229.328,314.653 229.828,320.987 230,327.5C 231.956,327.784 234.123,327.784 236.5,327.5C 236.175,320.313 236.509,313.313 237.5,306.5 Z"/></g>
<g><path style="opacity:0.835" fill="#f5fdfe" d="M 357.5,307.5 C 356.733,306.828 356.066,305.995 355.5,305C 355.694,303.57 355.694,302.07 355.5,300.5C 353.326,299.107 351.493,299.44 350,301.5C 351.235,303.69 351.735,306.023 351.5,308.5C 350.358,310.117 349.691,311.95 349.5,314C 350.795,318.417 350.795,322.584 349.5,326.5C 350.628,327.262 351.795,327.929 353,328.5C 355.251,326.97 356.751,324.97 357.5,322.5C 357.5,324.833 357.5,327.167 357.5,329.5C 354.5,329.5 351.5,329.5 348.5,329.5C 348.5,318.833 348.5,308.167 348.5,297.5C 351.5,297.5 354.5,297.5 357.5,297.5C 357.5,300.833 357.5,304.167 357.5,307.5 Z"/></g>
<g><path style="opacity:0.37" fill="#f2fefe" d="M 131.5,322.5 C 137.167,322.5 142.833,322.5 148.5,322.5C 148.5,324.833 148.5,327.167 148.5,329.5C 147.167,329.5 145.833,329.5 144.5,329.5C 147.018,327.643 147.018,325.81 144.5,324C 139.981,323.825 135.647,323.325 131.5,322.5 Z"/></g>
<g><path style="opacity:0.01" fill="#fefffe" d="M 150.5,324.5 C 151.525,324.897 151.692,325.563 151,326.5C 150.536,325.906 150.369,325.239 150.5,324.5 Z"/></g>
<g><path style="opacity:0.856" fill="#f5feff" d="M 180.5,323.5 C 178.929,326.231 176.595,328.065 173.5,329C 166.508,329.5 159.508,329.666 152.5,329.5C 152.5,328.5 152.5,327.5 152.5,326.5C 153.458,326.953 154.292,327.619 155,328.5C 159.923,327.782 164.923,327.782 170,328.5C 173.64,326.928 177.14,325.262 180.5,323.5 Z"/></g>
<g><path style="opacity:0.906" fill="#f5fefe" d="M 335.5,329.5 C 329.832,331.061 324.832,329.728 320.5,325.5C 321.117,325.389 321.617,325.056 322,324.5C 323.884,325.977 325.884,327.31 328,328.5C 328.333,328.167 328.667,327.833 329,327.5C 331.007,328.669 333.173,329.335 335.5,329.5 Z"/></g>
<g><path style="opacity:0.343" fill="#f4fefe" d="M 216.5,319.5 C 214.768,327.048 209.934,330.715 202,330.5C 199.453,330.238 196.953,329.738 194.5,329C 193.058,328.623 192.058,327.79 191.5,326.5C 194.68,327.393 197.846,328.393 201,329.5C 203.264,327.836 205.597,327.503 208,328.5C 211.01,325.657 213.843,322.657 216.5,319.5 Z"/></g>
</svg>
