<?xml version="1.0" encoding="UTF-8"?>
<!DOCTYPE svg PUBLIC "-//W3C//DTD SVG 1.1//EN" "http://www.w3.org/Graphics/SVG/1.1/DTD/svg11.dtd">
<svg xmlns="http://www.w3.org/2000/svg" version="1.1" width="246px" height="246px" style="shape-rendering:geometricPrecision; text-rendering:geometricPrecision; image-rendering:optimizeQuality; fill-rule:evenodd; clip-rule:evenodd" xmlns:xlink="http://www.w3.org/1999/xlink">
<g><path style="opacity:0.039" fill="#0c0d0d" d="M 214.5,48.5 C 214.672,47.5084 214.338,46.8417 213.5,46.5C 206.167,43.8333 203.833,46.1667 206.5,53.5C 206.5,53.8333 206.5,54.1667 206.5,54.5C 204.598,51.6627 203.931,48.3293 204.5,44.5C 207.85,44.335 211.183,44.5017 214.5,45C 215.791,46.2917 215.791,47.4583 214.5,48.5 Z"/></g>
<g><path style="opacity:1" fill="#e8ebeb" d="M 213.5,46.5 C 213.5,48.8333 213.5,51.1667 213.5,53.5C 211.167,53.5 208.833,53.5 206.5,53.5C 203.833,46.1667 206.167,43.8333 213.5,46.5 Z"/></g>
<g><path style="opacity:0.467" fill="#6e7477" d="M 213.5,46.5 C 214.338,46.8417 214.672,47.5084 214.5,48.5C 214.5,50.5 214.5,52.5 214.5,54.5C 211.833,54.5 209.167,54.5 206.5,54.5C 206.5,54.1667 206.5,53.8333 206.5,53.5C 208.833,53.5 211.167,53.5 213.5,53.5C 213.5,51.1667 213.5,48.8333 213.5,46.5 Z"/></g>
<g><path style="opacity:1" fill="#f3f4f3" d="M 80.5,53.5 C 88.0622,56.2322 95.0622,59.8988 101.5,64.5C 99.302,65.0671 96.9686,65.0671 94.5,64.5C 92.3826,62.3455 89.716,61.3455 86.5,61.5C 86.44,60.9569 86.1067,60.6236 85.5,60.5C 84.3335,84.4931 84.1669,108.493 85,132.5C 85.3826,133.056 85.8826,133.389 86.5,133.5C 94.8079,140.804 103.141,148.138 111.5,155.5C 111.5,156.833 110.833,157.5 109.5,157.5C 109.027,156.094 108.027,155.427 106.5,155.5C 106.027,154.094 105.027,153.427 103.5,153.5C 103.027,152.094 102.027,151.427 100.5,151.5C 99.5084,151.672 98.8417,151.338 98.5,150.5C 98.0269,149.094 97.0269,148.427 95.5,148.5C 92.5152,147.674 89.8485,146.341 87.5,144.5C 86.8166,142.824 85.4832,142.157 83.5,142.5C 81.847,142.34 80.5137,141.674 79.5,140.5C 78.8412,125.906 78.5079,111.239 78.5,96.5C 78.5007,81.8174 79.1673,67.4841 80.5,53.5 Z"/></g>
<g><path style="opacity:0.102" fill="#303232" d="M 80.5,53.5 C 80.5,53.1667 80.5,52.8333 80.5,52.5C 91.5474,55.5196 101.214,60.853 109.5,68.5C 106.833,67.1667 104.167,65.8333 101.5,64.5C 95.0622,59.8988 88.0622,56.2322 80.5,53.5 Z"/></g>
<g><path style="opacity:1" fill="#eeefef" d="M 165.5,53.5 C 166.828,82.4023 166.828,111.402 165.5,140.5C 160.484,143.674 155.151,146.341 149.5,148.5C 144.831,149.01 143.831,147.677 146.5,144.5C 149.874,140.124 153.874,136.458 158.5,133.5C 159.117,133.389 159.617,133.056 160,132.5C 160.5,108.502 160.667,84.5023 160.5,60.5C 158.901,60.2322 157.568,60.5655 156.5,61.5C 156.5,61.8333 156.5,62.1667 156.5,62.5C 153.838,63.4986 151.172,64.4986 148.5,65.5C 145.509,65.1663 143.176,66.1663 141.5,68.5C 140.209,68.7373 139.209,68.404 138.5,67.5C 146.649,61.3289 155.649,56.6623 165.5,53.5 Z"/></g>
<g><path style="opacity:0.137" fill="#2b2d2d" d="M 214.5,54.5 C 219.695,54.1795 224.695,54.5128 229.5,55.5C 224.833,55.5 220.167,55.5 215.5,55.5C 215.5,58.8333 215.5,62.1667 215.5,65.5C 214.34,66.265 213.34,67.265 212.5,68.5C 206.872,69.4954 201.206,69.8288 195.5,69.5C 195.5,69.1667 195.5,68.8333 195.5,68.5C 200.875,68.8282 206.208,68.4948 211.5,67.5C 214.168,63.6958 215.168,59.3625 214.5,54.5 Z"/></g>
<g><path style="opacity:1" fill="#f5f7f6" d="M 218.5,70.5 C 218.167,71.5 217.5,72.1667 216.5,72.5C 215.511,77.9753 215.178,83.642 215.5,89.5C 208.833,89.5 202.167,89.5 195.5,89.5C 194.167,82.8333 194.167,76.1667 195.5,69.5C 201.206,69.8288 206.872,69.4954 212.5,68.5C 213.34,67.265 214.34,66.265 215.5,65.5C 216.477,62.7131 216.81,59.7131 216.5,56.5C 220.5,56.5 224.5,56.5 228.5,56.5C 228.5,60.5 228.5,64.5 228.5,68.5C 225.482,68.3354 222.482,68.502 219.5,69C 218.944,69.3826 218.611,69.8826 218.5,70.5 Z"/></g>
<g><path style="opacity:0.647" fill="#5d6061" d="M 86.5,62.5 C 86.5,62.1667 86.5,61.8333 86.5,61.5C 89.716,61.3455 92.3826,62.3455 94.5,64.5C 91.8877,63.6295 89.221,62.9628 86.5,62.5 Z"/></g>
<g><path style="opacity:0.007" fill="#020202" d="M 156.5,62.5 C 156.5,62.1667 156.5,61.8333 156.5,61.5C 157.5,61.5 158.5,61.5 159.5,61.5C 159.5,71.1667 159.5,80.8333 159.5,90.5C 159.157,80.9554 158.157,71.622 156.5,62.5 Z"/></g>
<g><path style="opacity:0.639" fill="#707374" d="M 229.5,55.5 C 230.648,59.9811 230.815,64.6478 230,69.5C 226.27,70.4601 222.437,70.7935 218.5,70.5C 218.611,69.8826 218.944,69.3826 219.5,69C 222.482,68.502 225.482,68.3354 228.5,68.5C 228.5,64.5 228.5,60.5 228.5,56.5C 224.5,56.5 220.5,56.5 216.5,56.5C 216.81,59.7131 216.477,62.7131 215.5,65.5C 215.5,62.1667 215.5,58.8333 215.5,55.5C 220.167,55.5 224.833,55.5 229.5,55.5 Z"/></g>
<g><path style="opacity:0.733" fill="#b6b7b7" d="M 80.5,52.5 C 80.5,52.8333 80.5,53.1667 80.5,53.5C 79.1673,67.4841 78.5007,81.8174 78.5,96.5C 78.5079,111.239 78.8412,125.906 79.5,140.5C 78.5084,140.672 77.8417,140.338 77.5,139.5C 77.5,110.5 77.5,81.5 77.5,52.5C 78.5,52.5 79.5,52.5 80.5,52.5 Z"/></g>
<g><path style="opacity:0.012" fill="#0d0f0f" d="M 180.5,155.5 C 180.5,126.167 180.5,96.8333 180.5,67.5C 177.941,67.1984 175.607,67.5318 173.5,68.5C 172.502,91.9941 172.169,115.661 172.5,139.5C 171.803,120.484 171.137,101.318 170.5,82C 172.02,78.5999 171.687,75.4332 169.5,72.5C 170.511,70.6529 171.511,68.8196 172.5,67C 175.482,66.502 178.482,66.3354 181.5,66.5C 181.831,96.338 181.498,126.005 180.5,155.5 Z"/></g>
<g><path style="opacity:0.898" fill="#949a9b" d="M 94.5,64.5 C 96.9686,65.0671 99.302,65.0671 101.5,64.5C 104.167,65.8333 106.833,67.1667 109.5,68.5C 110.29,69.7942 111.29,70.9609 112.5,72C 111.906,72.4643 111.239,72.631 110.5,72.5C 105.128,69.8139 99.7946,67.1473 94.5,64.5 Z"/></g>
<g><path style="opacity:1" fill="#fbfcfc" d="M 173.5,68.5 C 175.5,68.5 177.5,68.5 179.5,68.5C 179.5,96.8333 179.5,125.167 179.5,153.5C 173.007,153.239 166.673,153.239 160.5,153.5C 160.5,152.5 160.5,151.5 160.5,150.5C 161.791,150.737 162.791,150.404 163.5,149.5C 166.36,148.756 169.36,148.089 172.5,147.5C 173.5,121.175 173.833,94.8418 173.5,68.5 Z"/></g>
<g><path style="opacity:1" fill="#f6f7f6" d="M 71.5,68.5 C 71.1688,95.0053 71.5022,121.339 72.5,147.5C 86.5549,149.801 99.5549,154.967 111.5,163C 110.906,163.464 110.239,163.631 109.5,163.5C 109.167,163.5 108.833,163.5 108.5,163.5C 106.824,161.166 104.491,160.166 101.5,160.5C 98.4954,158.723 95.1621,157.723 91.5,157.5C 90.8333,157.5 90.1667,157.5 89.5,157.5C 84.3909,157.57 79.3909,156.903 74.5,155.5C 71.7131,154.523 68.7131,154.19 65.5,154.5C 65.5,125.833 65.5,97.1667 65.5,68.5C 67.5,68.5 69.5,68.5 71.5,68.5 Z"/></g>
<g><path style="opacity:0.708" fill="#a6a8a8" d="M 173.5,68.5 C 175.607,67.5318 177.941,67.1984 180.5,67.5C 180.5,96.8333 180.5,126.167 180.5,155.5C 176.5,155.5 172.5,155.5 168.5,155.5C 172.167,154.833 175.833,154.167 179.5,153.5C 179.5,125.167 179.5,96.8333 179.5,68.5C 177.5,68.5 175.5,68.5 173.5,68.5 Z"/></g>
<g><path style="opacity:0.51" fill="#303435" d="M 109.5,68.5 C 112.744,70.0713 115.411,72.4046 117.5,75.5C 116.635,76.5827 115.635,76.7494 114.5,76C 112.907,75.0513 111.574,73.8846 110.5,72.5C 111.239,72.631 111.906,72.4643 112.5,72C 111.29,70.9609 110.29,69.7942 109.5,68.5 Z"/></g>
<g><path style="opacity:0.243" fill="#2a2c2c" d="M 59.5,90.5 C 59.5,90.1667 59.5,89.8333 59.5,89.5C 59.5,86.5 59.5,83.5 59.5,80.5C 55.1667,80.5 50.8333,80.5 46.5,80.5C 50.7167,79.5545 55.05,79.0545 59.5,79C 60.821,82.9341 60.821,86.7674 59.5,90.5 Z"/></g>
<g><path style="opacity:0.15" fill="#202020" d="M 64.5,67.5 C 64.5,96.8333 64.5,126.167 64.5,155.5C 63.8239,131.961 63.1572,108.294 62.5,84.5C 63.1263,78.7024 63.793,73.0357 64.5,67.5 Z"/></g>
<g><path style="opacity:1" fill="#fbfbfb" d="M 58.5,89.5 C 55.5,89.5 52.5,89.5 49.5,89.5C 49.5,113.167 49.5,136.833 49.5,160.5C 57.5,160.5 65.5,160.5 73.5,160.5C 84.8081,161.428 95.8081,163.761 106.5,167.5C 86.3402,168.497 66.0069,168.83 45.5,168.5C 43.8102,168.144 42.8102,167.144 42.5,165.5C 41.175,138.154 41.175,110.821 42.5,83.5C 47.6387,81.7361 52.972,81.0694 58.5,81.5C 58.5,84.1667 58.5,86.8333 58.5,89.5 Z"/></g>
<g><path style="opacity:0.703" fill="#a2a7a7" d="M 46.5,80.5 C 50.8333,80.5 55.1667,80.5 59.5,80.5C 59.5,83.5 59.5,86.5 59.5,89.5C 59.1667,89.5 58.8333,89.5 58.5,89.5C 58.5,86.8333 58.5,84.1667 58.5,81.5C 52.972,81.0694 47.6387,81.7361 42.5,83.5C 43.0347,81.5544 44.368,80.5544 46.5,80.5 Z"/></g>
<g><path style="opacity:0.115" fill="#181a1a" d="M 195.5,68.5 C 195.5,68.8333 195.5,69.1667 195.5,69.5C 194.167,76.1667 194.167,82.8333 195.5,89.5C 195.5,89.8333 195.5,90.1667 195.5,90.5C 194.178,87.2319 193.511,83.5652 193.5,79.5C 193.511,75.4348 194.178,71.7681 195.5,68.5 Z"/></g>
<g><path style="opacity:0.175" fill="#252525" d="M 80.5,52.5 C 79.5,52.5 78.5,52.5 77.5,52.5C 77.5,81.5 77.5,110.5 77.5,139.5C 76.5019,110.338 76.1686,81.0047 76.5,51.5C 78.099,51.2322 79.4324,51.5655 80.5,52.5 Z"/></g>
<g><path style="opacity:0.344" fill="#3c3f3f" d="M 86.5,61.5 C 85.1667,61.8333 85.1667,62.1667 86.5,62.5C 86.224,85.8072 86.224,109.141 86.5,132.5C 86.5,132.833 86.5,133.167 86.5,133.5C 85.8826,133.389 85.3826,133.056 85,132.5C 84.1669,108.493 84.3335,84.4931 85.5,60.5C 86.1067,60.6236 86.44,60.9569 86.5,61.5 Z"/></g>
<g><path style="opacity:0.609" fill="#8d9090" d="M 42.5,83.5 C 41.175,110.821 41.175,138.154 42.5,165.5C 41.8826,165.389 41.3826,165.056 41,164.5C 40.3333,137.833 40.3333,111.167 41,84.5C 41.3826,83.944 41.8826,83.6107 42.5,83.5 Z"/></g>
<g><path style="opacity:0.522" fill="#6d7171" d="M 216.5,72.5 C 216.5,78.5 216.5,84.5 216.5,90.5C 209.5,90.5 202.5,90.5 195.5,90.5C 195.5,90.1667 195.5,89.8333 195.5,89.5C 202.167,89.5 208.833,89.5 215.5,89.5C 215.178,83.642 215.511,77.9753 216.5,72.5 Z"/></g>
<g><path style="opacity:0.052" fill="#0e0e0e" d="M 51.5,90.5 C 51.5,113.167 51.5,135.833 51.5,158.5C 71.4184,156.707 90.7517,159.707 109.5,167.5C 110.773,168.257 110.773,168.923 109.5,169.5C 108.71,168.599 107.71,167.932 106.5,167.5C 95.8081,163.761 84.8081,161.428 73.5,160.5C 66.0182,159.508 58.3516,159.175 50.5,159.5C 50.1692,136.327 50.5025,113.327 51.5,90.5 Z"/></g>
<g><path style="opacity:0.169" fill="#282b2b" d="M 167.5,139.5 C 167.833,110.492 167.5,81.4923 166.5,52.5C 165.893,52.6236 165.56,52.9569 165.5,53.5C 155.649,56.6623 146.649,61.3289 138.5,67.5C 136.095,68.3981 134.095,69.8981 132.5,72C 133.094,72.4643 133.761,72.631 134.5,72.5C 132.983,74.1842 131.15,75.5175 129,76.5C 127.743,76.1501 127.409,75.4835 128,74.5C 139.192,62.8191 152.692,55.1525 168.5,51.5C 168.831,81.0047 168.498,110.338 167.5,139.5 Z"/></g>
<g><path style="opacity:0.878" fill="#7b7f80" d="M 138.5,67.5 C 139.209,68.404 140.209,68.7373 141.5,68.5C 139.664,70.588 137.331,71.9213 134.5,72.5C 133.761,72.631 133.094,72.4643 132.5,72C 134.095,69.8981 136.095,68.3981 138.5,67.5 Z"/></g>
<g><path style="opacity:0.278" fill="#393c3d" d="M 148.5,65.5 C 146.351,66.7362 144.018,67.7362 141.5,68.5C 143.176,66.1663 145.509,65.1663 148.5,65.5 Z"/></g>
<g><path style="opacity:0.409" fill="#686b6b" d="M 58.5,89.5 C 58.8333,89.5 59.1667,89.5 59.5,89.5C 59.5,89.8333 59.5,90.1667 59.5,90.5C 56.8333,90.5 54.1667,90.5 51.5,90.5C 50.5025,113.327 50.1692,136.327 50.5,159.5C 58.3516,159.175 66.0182,159.508 73.5,160.5C 65.5,160.5 57.5,160.5 49.5,160.5C 49.5,136.833 49.5,113.167 49.5,89.5C 52.5,89.5 55.5,89.5 58.5,89.5 Z"/></g>
<g><path style="opacity:0.053" fill="#0c0c0d" d="M 204.5,101.5 C 204.672,100.508 204.338,99.8417 203.5,99.5C 200.833,99.5 198.167,99.5 195.5,99.5C 194.503,119.326 194.17,139.326 194.5,159.5C 186.648,159.175 178.982,159.508 171.5,160.5C 160.028,160.786 149.028,163.119 138.5,167.5C 137.29,167.932 136.29,168.599 135.5,169.5C 134.226,168.811 134.226,167.977 135.5,167C 137.246,166.529 138.913,165.862 140.5,165C 139.437,163.812 138.103,163.312 136.5,163.5C 137.78,162.069 139.447,161.402 141.5,161.5C 142.134,162.947 143.301,163.613 145,163.5C 160.878,159.138 177.045,157.471 193.5,158.5C 193.5,138.167 193.5,117.833 193.5,97.5C 197.452,98.2721 201.452,98.6054 205.5,98.5C 205.737,99.791 205.404,100.791 204.5,101.5 Z"/></g>
<g><path style="opacity:1" fill="#fafbfa" d="M 195.5,99.5 C 198.167,99.5 200.833,99.5 203.5,99.5C 203.79,121.526 203.457,143.526 202.5,165.5C 202.167,166.5 201.5,167.167 200.5,167.5C 179.687,168.792 159.02,168.792 138.5,167.5C 149.028,163.119 160.028,160.786 171.5,160.5C 179.5,160.5 187.5,160.5 195.5,160.5C 195.5,140.167 195.5,119.833 195.5,99.5 Z"/></g>
<g><path style="opacity:0.385" fill="#5b5e5f" d="M 156.5,61.5 C 157.568,60.5655 158.901,60.2322 160.5,60.5C 160.667,84.5023 160.5,108.502 160,132.5C 159.617,133.056 159.117,133.389 158.5,133.5C 158.5,133.167 158.5,132.833 158.5,132.5C 159.482,118.579 159.815,104.579 159.5,90.5C 159.5,80.8333 159.5,71.1667 159.5,61.5C 158.5,61.5 157.5,61.5 156.5,61.5 Z"/></g>
<g><path style="opacity:0.706" fill="#abb0b0" d="M 165.5,53.5 C 165.56,52.9569 165.893,52.6236 166.5,52.5C 167.5,81.4923 167.833,110.492 167.5,139.5C 167.158,140.338 166.492,140.672 165.5,140.5C 166.828,111.402 166.828,82.4023 165.5,53.5 Z"/></g>
<g><path style="opacity:0.648" fill="#6f7070" d="M 203.5,99.5 C 204.338,99.8417 204.672,100.508 204.5,101.5C 205.834,122.496 205.667,143.496 204,164.5C 203.617,165.056 203.117,165.389 202.5,165.5C 203.457,143.526 203.79,121.526 203.5,99.5 Z"/></g>
<g><path style="opacity:0.75" fill="#b5b7b8" d="M 64.5,67.5 C 67.0593,67.1984 69.3926,67.5318 71.5,68.5C 69.5,68.5 67.5,68.5 65.5,68.5C 65.5,97.1667 65.5,125.833 65.5,154.5C 68.7131,154.19 71.7131,154.523 74.5,155.5C 71.1667,155.5 67.8333,155.5 64.5,155.5C 64.5,126.167 64.5,96.8333 64.5,67.5 Z"/></g>
<g><path style="opacity:0.439" fill="#727474" d="M 195.5,99.5 C 195.5,119.833 195.5,140.167 195.5,160.5C 187.5,160.5 179.5,160.5 171.5,160.5C 178.982,159.508 186.648,159.175 194.5,159.5C 194.17,139.326 194.503,119.326 195.5,99.5 Z"/></g>
<g><path style="opacity:0.329" fill="#38393a" d="M 64.5,67.5 C 66.9479,66.5269 69.6146,66.1936 72.5,66.5C 73.8127,91.1735 73.8127,115.84 72.5,140.5C 72.5,142.833 72.5,145.167 72.5,147.5C 71.5022,121.339 71.1688,95.0053 71.5,68.5C 69.3926,67.5318 67.0593,67.1984 64.5,67.5 Z"/></g>
<g><path style="opacity:0.165" fill="#1f2020" d="M 86.5,132.5 C 96.2861,138.564 104.619,146.231 111.5,155.5C 103.141,148.138 94.8079,140.804 86.5,133.5C 86.5,133.167 86.5,132.833 86.5,132.5 Z"/></g>
<g><path style="opacity:0.89" fill="#767a7b" d="M 83.5,142.5 C 85.4832,142.157 86.8166,142.824 87.5,144.5C 85.847,144.34 84.5137,143.674 83.5,142.5 Z"/></g>
<g><path style="opacity:0.259" fill="#3e4141" d="M 95.5,148.5 C 97.0269,148.427 98.0269,149.094 98.5,150.5C 96.9731,150.573 95.9731,149.906 95.5,148.5 Z"/></g>
<g><path style="opacity:0.082" fill="#202122" d="M 72.5,140.5 C 73.4614,142.265 73.7947,144.265 73.5,146.5C 86.7636,148.304 99.0969,152.637 110.5,159.5C 110.973,160.906 111.973,161.573 113.5,161.5C 114.456,162.659 115.456,163.826 116.5,165C 116.167,165.5 115.833,166 115.5,166.5C 113.22,165.864 111.22,164.864 109.5,163.5C 110.239,163.631 110.906,163.464 111.5,163C 99.5549,154.967 86.5549,149.801 72.5,147.5C 72.5,145.167 72.5,142.833 72.5,140.5 Z"/></g>
<g><path style="opacity:0.999" fill="#e1e4e4" d="M 163.5,149.5 C 162.791,150.404 161.791,150.737 160.5,150.5C 160.5,151.5 160.5,152.5 160.5,153.5C 166.673,153.239 173.007,153.239 179.5,153.5C 175.833,154.167 172.167,154.833 168.5,155.5C 168.167,155.5 167.833,155.5 167.5,155.5C 163.818,155.335 160.152,155.501 156.5,156C 155.944,156.383 155.611,156.883 155.5,157.5C 152.933,158.475 150.267,159.142 147.5,159.5C 146.209,159.263 145.209,159.596 144.5,160.5C 143.609,161.11 142.609,161.443 141.5,161.5C 139.447,161.402 137.78,162.069 136.5,163.5C 135.609,164.11 134.609,164.443 133.5,164.5C 131.621,164.607 131.288,164.107 132.5,163C 141.886,156.307 152.219,151.807 163.5,149.5 Z"/></g>
<g><path style="opacity:0.341" fill="#464949" d="M 100.5,151.5 C 102.027,151.427 103.027,152.094 103.5,153.5C 101.973,153.573 100.973,152.906 100.5,151.5 Z"/></g>
<g><path style="opacity:0.333" fill="#464848" d="M 103.5,153.5 C 105.027,153.427 106.027,154.094 106.5,155.5C 104.973,155.573 103.973,154.906 103.5,153.5 Z"/></g>
<g><path style="opacity:0.021" fill="#282929" d="M 173.5,68.5 C 173.833,94.8418 173.5,121.175 172.5,147.5C 169.36,148.089 166.36,148.756 163.5,149.5C 152.219,151.807 141.886,156.307 132.5,163C 131.288,164.107 131.621,164.607 133.5,164.5C 132.359,165.339 131.026,166.006 129.5,166.5C 129.167,166 128.833,165.5 128.5,165C 129.544,163.826 130.544,162.659 131.5,161.5C 130.503,161.53 129.836,161.03 129.5,160C 137.427,148.904 147.094,139.737 158.5,132.5C 158.5,132.833 158.5,133.167 158.5,133.5C 153.874,136.458 149.874,140.124 146.5,144.5C 141.063,148.102 136.396,152.602 132.5,158C 135.659,157.087 138.659,155.587 141.5,153.5C 141.783,154.289 142.283,154.956 143,155.5C 152.178,150.385 162.012,147.385 172.5,146.5C 172.5,144.167 172.5,141.833 172.5,139.5C 172.169,115.661 172.502,91.9941 173.5,68.5 Z M 131.5,161.5 C 131.783,160.711 132.283,160.044 133,159.5C 133.528,160.816 133.028,161.483 131.5,161.5 Z"/></g>
<g><path style="opacity:0.949" fill="#c0c4c4" d="M 146.5,144.5 C 143.831,147.677 144.831,149.01 149.5,148.5C 147.178,150.664 144.511,152.331 141.5,153.5C 138.659,155.587 135.659,157.087 132.5,158C 136.396,152.602 141.063,148.102 146.5,144.5 Z"/></g>
<g><path style="opacity:0.922" fill="#878c8d" d="M 167.5,155.5 C 163.705,156.617 159.705,157.283 155.5,157.5C 155.611,156.883 155.944,156.383 156.5,156C 160.152,155.501 163.818,155.335 167.5,155.5 Z"/></g>
<g><path style="opacity:0.365" fill="#4a4b4b" d="M 106.5,155.5 C 108.027,155.427 109.027,156.094 109.5,157.5C 107.973,157.573 106.973,156.906 106.5,155.5 Z"/></g>
<g><path style="opacity:0.373" fill="#313636" d="M 111.5,155.5 C 113.352,156.52 114.685,158.02 115.5,160C 115.164,161.03 114.497,161.53 113.5,161.5C 113.027,160.094 112.027,159.427 110.5,159.5C 110.167,158.833 109.833,158.167 109.5,157.5C 110.833,157.5 111.5,156.833 111.5,155.5 Z"/></g>
<g><path style="opacity:0.009" fill="#060606" d="M 89.5,157.5 C 90.1667,157.5 90.8333,157.5 91.5,157.5C 91.5,158.167 91.8333,158.5 92.5,158.5C 91.3991,159.598 90.0657,159.765 88.5,159C 89.056,158.617 89.3893,158.117 89.5,157.5 Z"/></g>
<g><path style="opacity:0.875" fill="#84898a" d="M 91.5,157.5 C 95.1621,157.723 98.4954,158.723 101.5,160.5C 98.4021,160.244 95.4021,159.578 92.5,158.5C 91.8333,158.5 91.5,158.167 91.5,157.5 Z"/></g>
<g><path style="opacity:0.918" fill="#7b8080" d="M 101.5,160.5 C 104.491,160.166 106.824,161.166 108.5,163.5C 105.843,163.065 103.509,162.065 101.5,160.5 Z"/></g>
<g><path style="opacity:0.008" fill="#181818" d="M 147.5,159.5 C 146.779,161.382 145.779,161.715 144.5,160.5C 145.209,159.596 146.209,159.263 147.5,159.5 Z"/></g>
<g><path style="opacity:0.679" fill="#9ea5a6" d="M 106.5,167.5 C 107.71,167.932 108.71,168.599 109.5,169.5C 87.9935,169.831 66.6601,169.497 45.5,168.5C 66.0069,168.83 86.3402,168.497 106.5,167.5 Z"/></g>
<g><path style="opacity:0.677" fill="#a0a7a7" d="M 138.5,167.5 C 159.02,168.792 179.687,168.792 200.5,167.5C 200.082,168.222 199.416,168.722 198.5,169C 177.503,169.5 156.503,169.667 135.5,169.5C 136.29,168.599 137.29,167.932 138.5,167.5 Z"/></g>
<g><path style="opacity:1" fill="#f6f7f7" d="M 149.5,180.5 C 150.147,181.274 150.48,182.274 150.5,183.5C 150.66,185.355 149.993,186.688 148.5,187.5C 131.497,187.667 114.497,187.5 97.5,187C 96.5769,184.959 96.2436,182.792 96.5,180.5C 102.833,179.833 109.167,179.167 115.5,178.5C 115.5,177.5 115.5,176.5 115.5,175.5C 119.413,174.404 123.413,174.238 127.5,175C 128.38,176.356 128.714,177.856 128.5,179.5C 135.557,179.24 142.557,179.573 149.5,180.5 Z"/></g>
<g><path style="opacity:0.013" fill="#010101" d="M 115.5,175.5 C 115.5,176.5 115.5,177.5 115.5,178.5C 109.833,178.5 104.167,178.5 98.5,178.5C 104.269,178.071 109.936,177.071 115.5,175.5 Z"/></g>
<g><path style="opacity:0.278" fill="#3a3d3d" d="M 98.5,178.5 C 104.167,178.5 109.833,178.5 115.5,178.5C 109.167,179.167 102.833,179.833 96.5,180.5C 96.1667,180.5 95.8333,180.5 95.5,180.5C 95.8212,178.952 96.8212,178.285 98.5,178.5 Z"/></g>
<g><path style="opacity:0.275" fill="#262828" d="M 149.5,180.5 C 142.557,179.573 135.557,179.24 128.5,179.5C 128.714,177.856 128.38,176.356 127.5,175C 123.413,174.238 119.413,174.404 115.5,175.5C 117.397,174.195 119.731,173.529 122.5,173.5C 124.833,173.833 127.167,174.167 129.5,174.5C 129.833,175.167 130.167,175.833 130.5,176.5C 135.802,177.329 141.136,177.829 146.5,178C 148.119,178.236 149.119,179.069 149.5,180.5 Z"/></g>
<g><path style="opacity:0.71" fill="#535757" d="M 95.5,180.5 C 95.8333,180.5 96.1667,180.5 96.5,180.5C 96.2436,182.792 96.5769,184.959 97.5,187C 114.497,187.5 131.497,187.667 148.5,187.5C 131.338,188.662 114.005,188.829 96.5,188C 94.3542,185.643 94.0209,183.143 95.5,180.5 Z"/></g>
</svg>
